<svg xmlns="http://www.w3.org/2000/svg" width="22.538" height="28.177" viewBox="0 0 22.538 28.177"><g transform="translate(-128.398 -31.55)"><path d="M154.516,238.147a.783.783,0,0,0-1.221,0l-10.047,11.726c-.336.391-.189.712.328.712h3.756a.941.941,0,0,1,.939.939v7.514a.941.941,0,0,0,.939.939H158.6a.941.941,0,0,0,.939-.939v-7.514a.941.941,0,0,1,.939-.939h3.756c.517,0,.664-.321.328-.712Z" transform="translate(-14.238 -200.25)" fill="#0089cd"/><path d="M130.276,35.307h18.781a1.878,1.878,0,0,0,0-3.757H130.276a1.878,1.878,0,0,0,0,3.757Z" fill="#0089cd"/></g></svg>